# xmcd
# 
# Track frame offsets:
#     150
#     14558
#     27880
#     42466
#     52573
#     65578
#     78318
#     89060
#     99784
#     111811
#     123383
#     136260
#     147114
#     157379
#     167866
#     181716
#     192439
# 
# Disc length: 2731
# 
# Revision: 1
# Processed by: cddbd v1.5.2PL0 Copyright (c) Steve Scherf et al.
# Submitted via: BonkEnc v1.0.8
# 
DISCID=e40aa911
DTITLE=Various Artist - Oldies But Goodies Vol. 1
DYEAR=0
DGENRE=Rock and Roll
TTITLE0=The Moonglows - Sincerely
TTITLE1=The Penguins - Earth Angel
TTITLE2=The Teen Queens - Eddie My Love
TTITLE3=Johnnie and Joe - Over The Mountain, Across The Sea
TTITLE4=Don Julian and The Meadowlarks - Heaven And Paradise
TTITLE5=The Medallions - The Letter
TTITLE6=The Jaguars - The Way You Look Tonight
TTITLE7=Santo and Johnny - Sleepwalk
TTITLE8=Paul Anka - Put Your Head On My Shoulder
TTITLE9=Sonny Knight - Confidential
TTITLE10=Jimmy Reed - Big Boss Man
TTITLE11=Shirley and Lee - Let The Good Times Roll
TTITLE12=Buddy Holly and The Crickets - That'll Be The Day
TTITLE13=Chuck Berry - Maybellene
TTITLE14=The Cadets - Stranded In The Jungle
TTITLE15=Lloyd Price - Stagger Lee
TTITLE16=Etta James - Dance With Me Henry (Wallflower)
EXTD=ID3G: 78
EXTT0=
EXTT1=
EXTT2=
EXTT3=
EXTT4=
EXTT5=
EXTT6=
EXTT7=
EXTT8=
EXTT9=
EXTT10=
EXTT11=
EXTT12=
EXTT13=
EXTT14=
EXTT15=
EXTT16=
PLAYORDER=
